<?xml version="1.0" encoding="utf-8"?><svg viewBox="0 0 256 256" xmlns="http://www.w3.org/2000/svg" xmlns:xlink="http://www.w3.org/1999/xlink"><style>:root>svg{display:none}:root>svg:target{display:block}</style><svg fill="none" viewBox="0 0 19 16" id="arrow-left" xmlns="http://www.w3.org/2000/svg"><path d="M.293 7.293a1 1 0 000 1.414l6.364 6.364a1 1 0 001.414-1.414L2.414 8l5.657-5.657A1 1 0 106.657.93L.293 7.293zM18.306 7H1v2h17.306V7z" fill="#3166E8"/></svg><svg fill="none" viewBox="0 0 25 16" id="arrow-left-alt" xmlns="http://www.w3.org/2000/svg"><path d="M1.216 7.293a1 1 0 000 1.414l6.364 6.364a1 1 0 001.414-1.414L3.337 8l5.657-5.657A1 1 0 007.58.93L1.216 7.293zM24.076 7H1.924v2h22.154V7z" fill="#fff"/></svg><svg fill="none" viewBox="0 0 19 16" id="arrow-right" xmlns="http://www.w3.org/2000/svg"><path d="M18.013 8.707a1 1 0 000-1.414L11.649.929a1 1 0 10-1.414 1.414L15.892 8l-5.657 5.657a1 1 0 001.414 1.414zM0 9h17.306V7H0z" fill="#3166e8"/></svg><svg fill="none" viewBox="0 0 25 16" id="arrow-right-alt" xmlns="http://www.w3.org/2000/svg"><path d="M23.784 8.707a1 1 0 000-1.414L17.42.929a1 1 0 10-1.414 1.414L21.663 8l-5.657 5.657a1 1 0 001.414 1.414l6.364-6.364zM.924 9h22.153V7H.923v2z" fill="#fff"/></svg><svg fill="none" viewBox="0 0 16 19" id="arrow-up" xmlns="http://www.w3.org/2000/svg"><path d="M8.707.293a1 1 0 00-1.414 0L.929 6.657A1 1 0 002.343 8.07L8 2.414l5.657 5.657a1 1 0 101.414-1.414L8.707.293zM9 19V1H7v18h2z" fill="#fff"/></svg><svg fill="none" viewBox="0 0 11 8" id="check" xmlns="http://www.w3.org/2000/svg"><path d="M1 2.5L4.5 6l5-5" stroke="#3166E8" stroke-width="2"/></svg><svg fill="none" viewBox="0 0 11 8" id="chevron-down" xmlns="http://www.w3.org/2000/svg"><path fill-rule="evenodd" clip-rule="evenodd" d="M.257 1.669L1.743.331 5.5 4.505 9.257.331l1.486 1.338L5.5 7.495.257 1.669z" fill="#093242"/></svg><svg fill="none" viewBox="0 0 18 18" id="clear" xmlns="http://www.w3.org/2000/svg"><path d="M10.47 8.95l7.29-7.29A1 1 0 0016.35.25L9.06 7.54 1.77.24A1 1 0 00.36 1.65l7.29 7.3-7.3 7.29a.999.999 0 101.41 1.41l7.3-7.29 7.29 7.29a1 1 0 001.41-1.41l-7.29-7.29z" fill="#093242"/></svg><svg fill="none" viewBox="0 0 20 20" id="clock" xmlns="http://www.w3.org/2000/svg"><path d="M10 0C4.486 0 0 4.486 0 10s4.486 10 10 10 10-4.486 10-10S15.514 0 10 0zm0 18c-4.411 0-8-3.589-8-8s3.589-8 8-8 8 3.589 8 8-3.589 8-8 8z" fill="#093242"/><path d="M11 5H9v6h6V9h-4V5z" fill="#093242"/></svg><svg fill="none" viewBox="0 0 22 20" id="download" xmlns="http://www.w3.org/2000/svg"><path d="M10.828 14.074a.219.219 0 00.344 0l3.063-3.874a.218.218 0 00-.172-.353h-2.027V.594a.22.22 0 00-.218-.219h-1.641a.22.22 0 00-.219.219v9.25h-2.02a.218.218 0 00-.173.353l3.063 3.877zm10.18-.957h-1.64a.22.22 0 00-.22.219v4.21H2.852v-4.21a.22.22 0 00-.22-.219H.993a.22.22 0 00-.219.219v5.414c0 .484.391.875.875.875h18.704a.874.874 0 00.875-.875v-5.414a.22.22 0 00-.22-.219z" fill="#3166E8"/></svg><svg fill="none" viewBox="0 0 21 20" id="linkedin" xmlns="http://www.w3.org/2000/svg"><path d="M4.767 20V6.506H.266V20h4.501zM2.517 4.663c1.57 0 2.547-1.037 2.547-2.332C5.034 1.008 4.087 0 2.547 0S0 1.007 0 2.332c0 1.294.977 2.33 2.488 2.33h.029zM7.259 20h4.501v-7.536c0-.403.03-.806.149-1.094.325-.806 1.066-1.64 2.31-1.64 1.628 0 2.28 1.237 2.28 3.05V20H21v-7.737c0-4.145-2.22-6.074-5.183-6.074-2.428 0-3.494 1.353-4.087 2.274h.03V6.506H7.26c.059 1.266 0 13.494 0 13.494z" fill="#fff"/></svg><svg viewBox="0 0 256 256" id="minus" xmlns="http://www.w3.org/2000/svg"><g stroke-width="0" stroke-miterlimit="10" fill="#fff"><path d="M244.472 137.692H11.242c-5.432 0-9.835-4.404-9.835-9.835s4.403-9.835 9.835-9.835h233.23c5.431 0 9.835 4.403 9.835 9.835s-4.404 9.835-9.835 9.835z"/><path d="M244.472 137.692H11.242c-5.432 0-9.835-4.404-9.835-9.835s4.403-9.835 9.835-9.835h233.23c5.431 0 9.835 4.403 9.835 9.835s-4.404 9.835-9.835 9.835z"/></g></svg><svg fill="none" viewBox="0 0 22 25" id="paperclip" xmlns="http://www.w3.org/2000/svg"><path d="M14.907 8.638l-1.532-1.526-7.637 7.608a3.238 3.238 0 004.579 4.576l9.169-9.151A5.396 5.396 0 0015.602.997c-1.4 0-2.746.544-3.753 1.516l-9.625 9.612a7.522 7.522 0 002.443 12.273 7.53 7.53 0 008.205-1.632l6.566-6.562-1.526-1.531-6.566 6.568a5.372 5.372 0 01-9.119-3.846c0-1.399.547-2.742 1.523-3.745l9.62-9.617a3.234 3.234 0 014.578-.154 3.235 3.235 0 010 4.729l-9.163 9.15a1.083 1.083 0 01-1.52-.147 1.075 1.075 0 010-1.366l7.642-7.607z" fill="#3166E8"/></svg><svg viewBox="0 0 256 256" id="plus" xmlns="http://www.w3.org/2000/svg"><path d="M244.472 118.022h-106.78V11.242c0-5.432-4.404-9.835-9.835-9.835-5.432 0-9.835 4.403-9.835 9.835v106.78H11.242c-5.432 0-9.835 4.403-9.835 9.835s4.403 9.835 9.835 9.835h106.78v106.78c0 5.431 4.403 9.835 9.835 9.835 5.431 0 9.835-4.404 9.835-9.835v-106.78h106.78c5.431 0 9.835-4.404 9.835-9.835s-4.404-9.835-9.835-9.835z" fill="#fff" stroke-width="0" stroke-miterlimit="10"/></svg></svg>