<svg preserveAspectRatio="none" fill="none" height="55" viewBox="0 0 641 55" width="641" xmlns="http://www.w3.org/2000/svg"><path clip-rule="evenodd" d="m1.5979 1c-.34485 0-.688903.00025-1.032226.00076l-.001465-1.00000138c.343811-.00050539.688351-.00075862 1.033691-.00075862s.68994.00025329 1.03381.00075874l-.00146 1.00000126c-.34338-.00051-.6875-.00076-1.03235-.00076zm637.6081 0c-.345 0-.689.00025-1.032.00076l-.002-1.00000141c.344-.00050536.689-.00075859 1.034-.00075859s.69.00025326 1.034.00075871l-.002 1.00000129c-.343-.00051-.687-.00076-1.032-.00076zm-3.084.0068c-.68.00301-1.358.00703-2.033.01203l-.008-.9999713c.676-.0050109 1.355-.00903055 2.037-.01205015zm-629.40697.01203c-.67493-.005-1.35279-.00902-2.03357-.01203l.00445-.99999103c.68177.00301966 1.3606.00703933 2.0365.01205013zm625.35797.01797c-.669.00698-1.335.01493-1.999.02386l-.013-.9999112c.664-.0089409 1.331-.016908 2.001-.0238926zm-621.3434.02386c-.6633-.00893-1.32951-.01688-1.99858-.02386l.01044-.9999432c.6701.0069846 1.33724.0149517 2.00154.0238926zm617.3634.02969c-.658.01086-1.312.02269-1.964.03547l-.02-.999811c.653-.012801 1.309-.024646 1.967-.0355252zm-613.4178.03547c-.6519-.01278-1.3067-.02461-1.9643-.03547l.0166-.9998656c.6586.0108796 1.3144.0227246 1.9673.0355246zm609.4708.04199c-.687.01565-1.371.03238-2.053.05016l-.026-.999657c.683-.017814 1.368-.034565 2.057-.050245zm-605.4356.05016c-.6812-.01778-1.3654-.03451-2.0529-.05016l.0228-.999741c.6885.015679 1.3739.03243 2.0562.050243zm4.0494.11933c-.6687-.02198-1.3405-.04292-2.0154-.06281l.0295-.999565c.676.019925 1.349.040902 2.0188.062919zm597.2992-.06281c-.674.01989-1.346.04084-2.015.06281l-.033-.999455c.67-.022017 1.343-.042994 2.019-.062919zm-593.3233.20707c-.6567-.02609-1.3162-.05117-1.9789-.07521l.0364-.999344c.6637.024087 1.3244.049204 1.9821.075341zm589.3113-.07521c-.663.02405-1.322.04912-1.979.07521l-.04-.99921c.658-.026137 1.319-.051255 1.983-.075342zm-585.3473.24671c-.6647-.03113-1.3324-.06119-2.0033-.09019l.0432-.999065c.6721.029046 1.341.059165 2.0069.090345zm581.4073-.09018c-.671.02899-1.338.05906-2.003.09018l-.047-.998905c.666-.03118 1.335-.0613 2.007-.090346zm-577.3374.29601c-.6718-.03652-1.3468-.07194-2.0251-.10625l.0505-.998725c.6795.034374 1.3558.069862 2.0289.106452zm573.2894-.10625c-.678.03431-1.353.06974-2.025.10626l-.054-.998527c.673-.03659 1.349-.072078 2.029-.106452zm-569.2975.33847c-.659-.04087-1.3211-.08066-1.9864-.11937l.0582-.99831c.6665.03878 1.3298.07865 1.9901.1196zm565.2675-.11936c-.666.03871-1.328.0785-1.987.11937l-.062-.99808c.661-.04095 1.324-.08082 1.99-.119602zm-561.3383.3783c-.6508-.04544-1.3048-.08982-1.962-.13313l.0657-.99783c.6585.04339 1.3138.08786 1.9659.13339zm557.3843-.13312c-.657.04331-1.311.08769-1.962.13314l-.07-.99758c.652-.04553 1.308-.09 1.966-.13339zm-553.3106.43451c-.6721-.05255-1.3475-.10395-2.0265-.15419l.0738-.99727c.6803.05034 1.3572.10184 2.0307.15451zm549.3016-.15418c-.679.05024-1.355.10164-2.027.1542l-.078-.99696c.674-.05266 1.351-.10417 2.031-.15451zm-545.3095.48318c-.6587-.05709-1.3206-.11307-1.986-.1679l.0822-.99662c.6667.05495 1.3301.11104 1.9901.16826zm541.2765-.16789c-.665.05484-1.327.11082-1.986.16791l-.086-.99626c.66-.05722 1.323-.11331 1.99-.16827zm-537.3526.52486c-.6493-.06189-1.3019-.12268-1.9578-.18234l.0906-.99589c.6573.0598 1.3113.12071 1.9621.18274zm533.4006-.18232c-.656.05967-1.308.12045-1.958.18234l-.095-.99549c.651-.06202 1.305-.12294 1.962-.18274zm-529.3409.58786c-.6695-.06999-1.3426-.13879-2.0192-.20639l.0994-.99504c.6781.06774 1.3527.1367 2.0238.20685zm525.3429-.20636c-.677.06759-1.35.13639-2.019.20638l-.104-.99458c.671-.07015 1.345-.1391 2.023-.20685zm-521.3675.64037c-.6557-.07466-1.3148-.14817-1.9773-.22051l.1085-.99409c.664.07251 1.3247.14619 1.9819.22102zm517.3495-.22048c-.662.07234-1.321.14585-1.977.22051l-.113-.99358c.657-.07483 1.318-.14852 1.982-.22103zm-513.41.68777c-.6574-.08113-1.3182-.16109-1.9826-.23987l.1178-.99304c.6659.07896 1.3283.15911 1.9873.24044zm509.476-.23984c-.664.07878-1.325.15874-1.982.23987l-.123-.99247c.659-.08132 1.321-.16148 1.987-.24044zm-505.4485.757c-.6641-.08862-1.3317-.17605-2.0029-.26225l.1274-.99185c.6729.08641 1.3421.17405 2.0078.26289zm501.4415-.26221c-.671.0862-1.339.17362-2.003.26225l-.132-.99121c.665-.08884 1.335-.17648 2.008-.2629zm-497.4994.80821c-.6501-.09334-1.3036-.18553-1.9605-.27654l.1372-.99054c.6586.09123 1.3138.18365 1.9655.27723zm493.5154-.2765c-.658.09101-1.311.1832-1.961.27654l-.142-.98984c.652-.09359 1.307-.18601 1.965-.27724zm-489.5486.86677c-.6703-.10327-1.3443-.20531-2.0221-.30608l.1471-.98913c.6795.10103 1.3552.20333 2.0273.30687zm485.6426-.30604c-.678.10078-1.351.20281-2.022.30609l-.152-.98834c.672-.10354 1.348-.20584 2.027-.30687zm-481.6639.94034c-.656-.10813-1.3155-.21507-1.9786-.32079l.1575-.98753c.6648.106 1.326.21322 1.9837.32163zm477.6419-.32075c-.663.10573-1.323.21267-1.978.32079l-.163-.98668c.658-.10841 1.319-.21563 1.984-.32163zm-473.7476.98357c-.6423-.11278-1.2878-.22442-1.9369-.3349l.1679-.98582c.6507.11077 1.298.22271 1.9419.33579zm469.8116-.33486c-.649.11048-1.294.22213-1.937.33491l-.173-.98493c.644-.11308 1.291-.22502 1.942-.33579zm-465.8152 1.05917c-.6598-.12332-1.3231-.24543-1.99-.36631l.1783-.98397c.6687.12121 1.3339.24365 1.9954.3673zm461.8722-.36626c-.667.12088-1.33.243-1.99.36631l-.184-.98298c.662-.12365 1.327-.24609 1.995-.3673zm-457.9554 1.12028c-.6459-.12799-1.2953-.25484-1.948-.38052l.1891-.98197c.6545.12602 1.3056.25322 1.9533.38156zm453.9964-.38047c-.653.12568-1.302.25253-1.948.38052l-.194-.98093c.647-.12834 1.298-.25554 1.953-.38156zm-450.0663 1.18157c-.6615-.1386-1.3263-.27602-1.9948-.41223l.1996-.97987c.6704.13658 1.337.27438 2.0003.41337zm446.1833-.41217c-.669.1362-1.334.27363-1.995.41223l-.205-.97874c.663-.13898 1.33-.27678 2-.41336zm-442.256 1.25774c-.648-.1432-1.299-.2853-1.954-.4262l.211-.97762c.656.14133 1.309.28381 1.959.42741zm438.287-.4262c-.654.141-1.306.2831-1.953.4263l-.216-.97645c.65-.1436 1.302-.28608 1.959-.42741zm-434.405 1.3066c-.646-.1503-1.296-.2994-1.949-.4474l.222-.9753c.654.1485 1.305.298 1.954.4487zm430.518-.4474c-.653.1481-1.302.2972-1.948.4474l-.227-.974c.648-.1506 1.299-.3002 1.954-.4486zm-426.592 1.3826c-.648-.158-1.299-.315-1.953-.4709l.232-.9728c.656.1563 1.308.3137 1.958.4722zm422.671-.4708c-.654.1558-1.305.3128-1.953.4709l-.238-.9715c.65-.1585 1.303-.3159 1.959-.4722zm-418.82 1.4317c-.636-.1622-1.275-.3234-1.917-.4835l.243-.9703c.643.1606 1.283.3222 1.921.4848zm414.932-.4835c-.641.1602-1.28.3214-1.916.4836l-.247-.969c.637-.1626 1.278-.3242 1.921-.4848zm-411.019 1.5035c-.647-.1721-1.296-.3432-1.949-.5133l.253-.9677c.654.1705 1.305.3421 1.953.5146zm407.138-.5133c-.652.1701-1.302.3412-1.948.5133l-.257-.9663c.648-.1725 1.299-.3441 1.953-.5146zm-403.293 1.5573c-.636-.1759-1.274-.3508-1.914-.5248l.262-.9651c.642.1745 1.282.3498 1.919.5261zm399.414-.5248c-.641.174-1.279.349-1.914.5249l-.267-.9638c.637-.1763 1.277-.3517 1.919-.5261zm-395.538 1.6177c-.644-.1848-1.29-.3688-1.939-.5519l.271-.9624c.651.1834 1.299.3678 1.944.5531zm391.687-.5518c-.649.1831-1.296.367-1.94.5519l-.276-.9612c.646-.1853 1.294-.3697 1.945-.5532zm-387.852 1.6709c-.634-.1881-1.271-.3755-1.91-.562l.28-.9599c.641.1869 1.279.3747 1.915.5632zm383.988-.5619c-.64.1865-1.276.3739-1.911.562l-.284-.9587c.636-.1886 1.274-.3763 1.914-.5633zm-380.139 1.7207c-.641-.1959-1.284-.391-1.93-.5853l.288-.9575c.647.1947 1.292.3902 1.934.5864zm376.309-.5852c-.645.1943-1.288.3894-1.929.5852l-.292-.9563c.642-.1962 1.286-.3917 1.933-.5865zm-372.487 1.7684c-.633-.1985-1.268-.3964-1.905-.5936l.295-.9553c.639.1976 1.275.3958 1.909.5947zm368.641-.5936c-.637.1973-1.272.3952-1.905.5937l-.299-.9542c.634-.1989 1.27-.3971 1.908-.5947zm-364.814 1.8076c-.638-.2046-1.277-.4087-1.919-.6121l.303-.9532c.642.2038 1.283.4081 1.922.613zm361-.612c-.641.2034-1.281.4075-1.919.6121l-.305-.9523c.639-.2049 1.28-.4092 1.922-.613zm-357.189 1.8458c-.633-.2066-1.266-.4128-1.901-.6184l.308-.9514c.636.2059 1.27.4124 1.903.6192zm353.361-.6183c-.635.2056-1.269.4118-1.901.6183l-.311-.9505c.634-.2069 1.268-.4133 1.904-.6192zm-349.549 1.8736c-.636-.2108-1.272-.4212-1.91-.6312l.313-.9498c.638.2102 1.275.4208 1.912.6318zm345.746-.6311c-.638.21-1.275.4204-1.91.6312l-.315-.9492c.636-.211 1.273-.4216 1.912-.6319zm-341.944 1.8996c-.632-.212-1.265-.4237-1.898-.6352l.316-.9486c.634.2117 1.268.4235 1.9.6357zm338.13-.6351c-.634.2115-1.267.4232-1.899.6352l-.318-.9481c.633-.2122 1.266-.4241 1.901-.6357zm-335.619 1.4791-.611-.2057.319-.9477c.635.2139 1.27.4279 1.904.6421l-.32.9474c-.43-.1454-.861-.2908-1.292-.4361zm331.821-.2056c-.635.2138-1.27.4277-1.904.6418l-.32-.9474c.635-.2142 1.269-.4282 1.905-.6421zm-326.728 1.9275c-.633-.2144-1.267-.4288-1.9-.6431l.321-.9473c.633.2144 1.266.4288 1.9.6433zm322.924-.6431-1.9.6432-.321-.9471 1.9-.6433zm-319.125 1.9298c-.634-.2144-1.267-.4288-1.9-.6433l.321-.9471c.633.2144 1.266.4288 1.899.6432zm315.326-.6432-1.9.6433-.321-.9473 1.9-.6431zm-311.521 1.9281c-.635-.2139-1.269-.4279-1.904-.6421l.32-.9474c.634.2141 1.269.428 1.904.6418zm307.719-.642c-.634.2142-1.269.4282-1.904.6421l-.319-.9477c.635-.2138 1.269-.4277 1.903-.6418zm-303.918 1.9164c-.634-.2116-1.267-.4235-1.9-.6357l.318-.9481c.632.212 1.265.4237 1.899.6352zm300.113-.6356c-.632.2122-1.266.424-1.9.6357l-.316-.9486c.633-.2115 1.266-.4232 1.898-.6352zm-296.295 1.9014c-.639-.2103-1.276-.4209-1.912-.6319l.315-.9492c.635.2108 1.272.4212 1.91.6312zm292.49-.6318c-.637.2109-1.274.4216-1.912.6318l-.313-.9498c.638-.21 1.274-.4204 1.91-.6312zm-288.682 1.8758c-.636-.2059-1.271-.4123-1.904-.6192l.311-.9505c.632.2066 1.266.4127 1.901.6183zm284.865-.6191c-.633.2068-1.267.4133-1.903.6192l-.308-.9514c.635-.2056 1.268-.4118 1.901-.6184zm-281.031 1.8484c-.642-.2038-1.283-.4081-1.922-.613l.305-.9523c.638.2046 1.278.4087 1.919.6121zm277.216-.6129c-.639.2049-1.28.4092-1.922.613l-.303-.9532c.642-.2034 1.281-.4075 1.919-.6121zm-273.396 1.8105c-.638-.1976-1.274-.3958-1.908-.5947l.299-.9542c.633.1985 1.268.3964 1.905.5937zm269.562-.5946c-.634.1988-1.27.3971-1.908.5947l-.296-.9553c.332-.1029.664-.2061.996-.3094.303-.0946.606-.1893.909-.2842zm-265.708 1.7718c-.647-.1948-1.291-.3903-1.933-.5865l.292-.9563c.641.1958 1.284.3909 1.929.5852zm261.879-.5864c-.642.1962-1.287.3917-1.933.5864l-.289-.9575c.646-.1943 1.289-.3894 1.93-.5853zm-258.042 1.7243c-.64-.187-1.278-.3747-1.914-.5633l.284-.9587c.635.1881 1.271.3755 1.911.562zm254.186-.5632c-.636.1885-1.274.3763-1.915.5632l-.28-.9599c.639-.1865 1.276-.3739 1.91-.562zm-250.312 1.6747c-.651-.1835-1.299-.3679-1.945-.5532l.276-.9612c.644.1849 1.291.3688 1.94.5519zm246.468-.5531c-.645.1853-1.293.3697-1.944.5531l-.271-.9624c.649-.1831 1.295-.3671 1.939-.5519zm-242.608 1.6215c-.642-.1744-1.282-.3498-1.919-.5261l.267-.9638c.635.1759 1.273.3509 1.914.5249zm238.723-.526c-.637.1763-1.277.3516-1.919.5261l-.262-.9651c.64-.174 1.278-.3489 1.914-.5248zm-234.834 1.5611c-.654-.1705-1.305-.342-1.953-.5146l.257-.9663c.646.1721 1.296.3432 1.948.5133zm230.979-.5145c-.648.1725-1.299.3441-1.954.5146l-.252-.9677c.653-.1701 1.302-.3412 1.949-.5133zm-227.088 1.5073c-.643-.1606-1.284-.3222-1.921-.4848l.247-.969c.636.1622 1.274.3234 1.916.4836zm223.165-.4847c-.638.1626-1.278.3242-1.921.4848l-.243-.9703c.642-.1601 1.281-.3213 1.917-.4835zm-219.267 1.4355c-.656-.1563-1.309-.3137-1.959-.4722l.238-.9715c.647.1581 1.298.3151 1.953.4709zm215.406-.4721c-.649.1585-1.302.3159-1.958.4722l-.232-.9728c.654-.1559 1.305-.3129 1.953-.4709zm-211.474 1.3863c-.655-.1484-1.306-.298-1.954-.4486l.227-.974c.646.1502 1.295.2994 1.948.4474zm207.538-.4486c-.649.1507-1.3.3002-1.954.4487l-.222-.9753c.653-.148 1.303-.2971 1.949-.4474zm-203.64 1.3102c-.657-.1414-1.31-.2838-1.959-.4274l.216-.9765c.648.1432 1.299.2853 1.953.4263zm199.747-.4274c-.65.1436-1.303.2861-1.959.4274l-.21-.9776c.654-.1409 1.305-.283 1.953-.4262zm-195.768 1.2612c-.67-.1366-1.337-.2744-2-.4133l.205-.9788c.661.1386 1.326.276 1.995.4122zm191.83-.4133c-.663.139-1.33.2768-2 .4134l-.2-.9799c.668-.1362 1.333-.2736 1.995-.4122zm-187.936 1.1848c-.655-.126-1.306-.2532-1.953-.3815l.194-.981c.646.128 1.295.2549 1.948.3805zm183.995-.3815c-.648.1283-1.299.2555-1.953.3816l-.189-.982c.652-.1257 1.302-.2525 1.948-.3805zm-180.026 1.1233c-.668-.1212-1.333-.2436-1.995-.3673l.184-.983c.66.1234 1.323.2455 1.99.3664zm176.099-.3672c-.662.1236-1.327.2461-1.996.3673l-.178-.984c.667-.1209 1.33-.243 1.99-.3663zm-172.145 1.062c-.65-.1108-1.298-.2227-1.942-.3358l.173-.9849c.642.1127 1.288.2244 1.937.3349zm168.137-.3358c-.644.1131-1.291.2251-1.942.3358l-.167-.9858c.649-.1105 1.294-.2221 1.936-.3349zm-164.19.9862c-.665-.106-1.326-.2132-1.984-.3216l.163-.9867c.656.1081 1.315.2151 1.978.3208zm160.286-.3216c-.658.1084-1.319.2156-1.984.3216l-.157-.9875c.663-.1057 1.322-.2127 1.978-.3208zm-156.254.9428c-.679-.101-1.355-.2033-2.027-.3069l.152-.9883c.67.1033 1.345.2053 2.022.3061zm152.265-.3068c-.672.1035-1.348.2058-2.028.3068l-.147-.9891c.678-.1008 1.352-.2028 2.022-.3061zm-148.35.8689c-.658-.0912-1.313-.1836-1.965-.2772l.142-.9898c.65.0933 1.304.1855 1.961.2765zm144.373-.2772c-.652.0936-1.307.186-1.966.2773l-.137-.9906c.657-.091 1.311-.1832 1.961-.2765zm-140.378.8103c-.673-.0864-1.343-.1741-2.008-.2629l.132-.9912c.379.0506.76.1008 1.141.1506.287.0374.574.0746.862.1116zm136.426-.2629c-.666.0888-1.335.1765-2.008.2629l-.127-.9919c.671-.0862 1.338-.1736 2.003-.2622zm-132.41.7588c-.665-.0789-1.328-.1591-1.987-.2404l.123-.9925c.657.0812 1.318.1611 1.982.2399zm128.373-.2404c-.659.0813-1.322.1615-1.988.2405l-.118-.9931c.665-.0788 1.326-.1587 1.983-.2398zm-124.429.6894c-.664-.0725-1.325-.1462-1.982-.221l.113-.9936c.656.0747 1.315.1482 1.977.2205zm120.48-.221c-.658.0748-1.318.1485-1.982.221l-.109-.9941c.663-.0723 1.322-.1458 1.978-.2205zm-116.454.6419c-.678-.0678-1.352-.1367-2.023-.2069l.104-.9946c.669.07 1.342.1388 2.019.2064zm112.469-.2069c-.671.0702-1.346.1391-2.024.2069l-.099-.9951c.677-.0676 1.35-.1364 2.019-.2063zm-108.462.5892c-.657-.0598-1.311-.1207-1.962-.1827l.095-.9955c.65.0619 1.302.1227 1.958.1823zm104.393-.1827c-.65.062-1.304.1229-1.962.1827l-.09-.9959c.655-.0596 1.308-.1204 1.957-.1823zm-100.432.526c-.667-.055-1.33-.1111-1.99-.1683l.086-.9963c.659.0571 1.321.1131 1.986.168zm96.5-.1683c-.66.0572-1.324.1133-1.99.1683l-.082-.9966c.665-.0549 1.327-.1109 1.986-.1679zm-92.459.4842c-.68-.0503-1.357-.1018-2.031-.1545l.078-.997c.672.0526 1.348.104 2.027.1542zm88.458-.1545c-.673.0527-1.35.1042-2.03.1545l-.074-.9973c.679-.0502 1.354-.1016 2.026-.1541zm-84.441.4354c-.658-.0434-1.313-.0879-1.966-.1334l.07-.9976c.651.0455 1.305.0899 1.962.1332zm80.359-.1334c-.652.0456-1.307.09-1.966.1334l-.065-.9978c.657-.0433 1.311-.0877 1.962-.1332zm-76.397.3791c-.667-.0388-1.33-.0787-1.991-.1196l.062-.9981c.659.0409 1.321.0806 1.987.1194zm72.46-.1196c-.66.0409-1.323.0808-1.99.1196l-.058-.9983c.666-.0388 1.328-.0785 1.986-.1194zm-68.422.3391c-.68-.0344-1.356-.0699-2.029-.1065l.054-.9985c.672.0365 1.347.072 2.025.1063zm64.423-.1065c-.673.0366-1.349.0721-2.029.1065l-.05-.9987c.678-.0343 1.353-.0698 2.025-.1063zm-60.368.2966c-.672-.029-1.341-.0592-2.007-.0904l.047-.9989c.665.0312 1.333.0612 2.003.0902zm56.29-.0904c-.665.0312-1.334.0613-2.006.0904l-.044-.9991c.671-.029 1.339-.059 2.004-.0902zm-52.343.2472c-.664-.0241-1.325-.0492-1.983-.0753l.04-.9993c.657.0261 1.316.0512 1.979.0753zm48.372-.0753c-.657.0261-1.318.0512-1.982.0753l-.036-.9993c.663-.0241 1.322-.0492 1.979-.0753zm-44.353.2074c-.676-.0199-1.349-.0409-2.019-.0629l.033-.9995c.669.022 1.341.0429 2.015.0628zm40.371-.0629c-.67.022-1.343.043-2.019.0629l-.03-.9996c.675-.0199 1.347-.0408 2.016-.0628zm-4.057.1195c-.682.0178-1.367.0346-2.056.0502l-.022-.9997c.687-.0157 1.371-.0324 2.052-.0502zm-32.22.0502c-.689-.0156-1.374-.0324-2.057-.0502l.027-.9997c.681.0178 1.365.0345 2.052.0502zm3.952.0776c-.658-.0109-1.314-.0227-1.967-.0355l.02-.9998c.652.0128 1.306.0246 1.964.0355zm23.04-.0133c-.26.0046-.52.009-.781.0133l-.016-.9998c.658-.0109 1.312-.0227 1.964-.0355l.02.9998c-.395.0077-.791.0151-1.187.0222zm-19.054.0669c-.67-.0069-1.337-.0149-2.001-.0238l.013-1c.664.009 1.33.0169 1.999.0239zm16.289-.0238c-.664.0089-1.331.0169-2.002.0238l-.01-.9999c.669-.007 1.335-.0149 1.999-.0239zm-4.021.0418c-.675.0051-1.354.0091-2.036.0121l-.005-1c.681-.003 1.359-.007 2.034-.012zm-8.212.0121c-.682-.003-1.361-.007-2.036-.0121l.007-.9999c.675.005 1.353.009 2.034.012zm3.088.0068c-.345 0-.69-.0003-1.034-.0008l.002-1c.343.0005.687.0008 1.032.0008s.689-.0003 1.032-.0008l.002 1c-.344.0005-.689.0008-1.034.0008z" fill="#3166e8" fill-rule="evenodd"/></svg>